# xmcd
#
# Track frame offsets:
#	150
#	23641
#	49446
#	68509
#	92193
#	129803
#	151430
#	169573
#	201596
#	228514
#
# Disc length: 3390 seconds
#
# Revision: 0
# Processed by: cddbd v1.4PL0 Copyright (c) Steve Scherf et al.
# Submitted via: EasyCDDAExtractor 5.0.5.1
#
DISCID=7f0d3c0a
DTITLE=Various Artist - Amberdelic Space [CD 9)
DYEAR=1998
DGENRE=Ambient
TTITLE0=Future Sound Of London - Stolen Documents
TTITLE1=Carl Cox - Tribal Jedi
TTITLE2=Art Science Technology - A.S.T.
TTITLE3=Awareness - Religion
TTITLE4=Loop Guru - Skin Heaven - Extended Trapezium Mix
TTITLE5=Canabisis - Topkapi
TTITLE6=Coyaba Tribe - Mission to Love
TTITLE7=Josh Abrahams - Love Becomes a Meditation
TTITLE8=Danse City - Meet Your Maker
TTITLE9=Meeting Euphoria - Into The Liquid Mirror
EXTD=
EXTT0=
EXTT1=
EXTT2=
EXTT3=
EXTT4=
EXTT5=
EXTT6=
EXTT7=
EXTT8=
EXTT9=
PLAYORDER=
